<svg xmlns="http://www.w3.org/2000/svg" viewBox="0 0 540.81 47.32">
  <g id="Layer_1" data-name="Layer 1">
    <g>
      <path d="M309.54,20.69h0L289.14.29,286,3.4l18.21,18.21H207.1V26h97.13L286,44.21l3.11,3.11,23.51-23.51Z"/>
      <g>
        <path d="M29.28,41.52c-2.89,2.89-7,4.18-11.56,4.18H1.91V1.91H17.72c4.55,0,8.67,1.29,11.56,4.18C34.2,11,33.71,17,33.71,23.62S34.2,36.6,29.28,41.52Zm-6-29.28a7.62,7.62,0,0,0-6.39-2.7H10.46V38.08h6.46a7.63,7.63,0,0,0,6.39-2.71c1.6-2,1.85-5.1,1.85-11.75S24.91,14.21,23.31,12.24Z"/>
        <path d="M64.26,45.7,61.68,38H46.12L43.47,45.7H34.55L50.48,1.91h6.71l16,43.79ZM54.05,14.83,48.51,30.76H59.4Z"/>
        <path d="M102.5,41.09a16.46,16.46,0,0,1-12.37,5,16.06,16.06,0,0,1-11.81-4.8,12.66,12.66,0,0,1-3.56-6.58A59.88,59.88,0,0,1,74,23.81a59.93,59.93,0,0,1,.74-10.89,12.48,12.48,0,0,1,3.56-6.58,16.06,16.06,0,0,1,11.81-4.8c10,0,15.32,6.4,16.49,14H98c-1.05-4.25-3.63-6.4-7.88-6.4a7,7,0,0,0-5.47,2.34c-1.6,2-2.09,3.62-2.09,12.3s.37,10.33,2.09,12.36a6.76,6.76,0,0,0,5.47,2.28A7.86,7.86,0,0,0,96.22,36a8.64,8.64,0,0,0,2-5.85V28.48H90.13V21.35h16.55v6.39C106.68,34.14,105.51,37.89,102.5,41.09Z"/>
        <path d="M138.18,45.7,120.84,18.82V45.7h-8.55V1.91h7.63l17.34,26.82V1.91h8.55V45.7Z"/>
        <path d="M153.07,45.7V1.91h8.55V45.7Z"/>
        <path d="M181.66,46.07c-6.65,0-11.69-1.41-16-5.78l5.54-5.53c2.77,2.76,6.52,3.69,10.58,3.69,5,0,7.75-1.91,7.75-5.42a4.86,4.86,0,0,0-1.36-3.69,6.45,6.45,0,0,0-3.87-1.53L179,27.07c-3.75-.56-6.52-1.72-8.49-3.63-2.09-2.09-3.13-4.92-3.13-8.61,0-7.81,5.78-13.29,15.25-13.29,6,0,10.39,1.48,14.15,5.11L191.37,12c-2.76-2.65-6.09-3-9-3-4.55,0-6.76,2.53-6.76,5.54a4.24,4.24,0,0,0,1.29,3.14A7.57,7.57,0,0,0,181,19.38l5.17.74c4,.55,6.51,1.66,8.36,3.38,2.34,2.21,3.38,5.41,3.38,9.29C197.89,41.27,190.82,46.07,181.66,46.07Z"/>
      </g>
      <g>
        <path d="M337.24,46.07c-6.65,0-11.69-1.41-16-5.78l5.54-5.53c2.77,2.76,6.52,3.69,10.58,3.69,5,0,7.75-1.91,7.75-5.42a4.89,4.89,0,0,0-1.35-3.69,6.52,6.52,0,0,0-3.88-1.53l-5.29-.74c-3.75-.56-6.52-1.72-8.49-3.63C324,21.35,323,18.52,323,14.83,323,7,328.75,1.54,338.22,1.54c6,0,10.39,1.48,14.15,5.11L347,12c-2.76-2.65-6.08-3-9-3-4.55,0-6.76,2.53-6.76,5.54a4.24,4.24,0,0,0,1.29,3.14,7.57,7.57,0,0,0,4.06,1.72l5.17.74c4,.55,6.52,1.66,8.36,3.38,2.34,2.21,3.38,5.41,3.38,9.29C353.47,41.27,346.4,46.07,337.24,46.07Z"/>
        <path d="M383.86,45.7,372.61,25.78,367,32.54V45.7H358.4V1.91H367V21L382.39,1.91h10.39L378.27,19.32,393.83,45.7Z"/>
        <path d="M412.83,46.07c-9,0-16.11-6.09-16.11-15.37V1.91h8.55V30.39c0,5,3,8.06,7.56,8.06s7.63-3,7.63-8.06V1.91H429V30.7C429,40,421.81,46.07,412.83,46.07Z"/>
        <path d="M459,45.7l-8.55-17.46h-6.15V45.7h-8.55V1.91H453c8.92,0,14.21,6.09,14.21,13.41a11.79,11.79,0,0,1-8,11.5l9.77,18.88ZM452.4,9.54h-8.06V21.1h8.06c3.75,0,6.21-2.4,6.21-5.78S456.15,9.54,452.4,9.54Z"/>
        <path d="M491.78,45.7H473.45V1.91H491c8.55,0,13.53,4.8,13.53,12.3a10.1,10.1,0,0,1-5.41,9c2.65,1.23,6,4,6,9.84C505.19,41.27,499.59,45.7,491.78,45.7ZM490.37,9.54H482V19.62h8.37c3.63,0,5.66-2,5.66-5S494,9.54,490.37,9.54Zm.55,17.77H482V38.08h8.92c3.88,0,5.72-2.46,5.72-5.42S494.8,27.31,490.92,27.31Z"/>
        <path d="M510.94,45.7V1.91h28.85V9.54h-20.3V19.81h17.28v7.63H519.49V38.08h20.3V45.7Z"/>
      </g>
    </g>
  </g>
</svg>
