<?xml version="1.0" encoding="utf-8"?>
<!-- Generator: Adobe Illustrator 26.4.1, SVG Export Plug-In . SVG Version: 6.00 Build 0)  -->
<svg version="1.1" baseProfile="basic" id="Layer_1"
	 xmlns="http://www.w3.org/2000/svg" xmlns:xlink="http://www.w3.org/1999/xlink" x="0px" y="0px" viewBox="0 0 336.9 15.7"
	 xml:space="preserve">
<g>
	<polygon points="324.5,13.9 314.8,4.1 305,13.9 295.3,4.1 285.5,13.9 275.8,4.1 266,13.9 256.2,4.1 246.5,13.9 236.7,4.1 227,13.9 
		217.2,4.1 207.5,13.9 197.7,4.1 187.9,13.9 178.2,4.1 168.4,13.9 158.7,4.1 148.9,13.9 139.2,4.1 129.4,13.9 119.6,4.1 109.9,13.9 
		100.1,4.1 90.4,13.9 80.6,4.1 70.9,13.9 61.1,4.1 51.3,13.9 41.6,4.1 31.8,13.9 22.1,4.1 12.3,13.9 2,3.6 3.1,2.4 12.3,11.6 
		22.1,1.9 31.8,11.6 41.6,1.9 51.3,11.6 61.1,1.9 70.9,11.6 80.6,1.9 90.4,11.6 100.1,1.9 109.9,11.6 119.6,1.9 129.4,11.6 
		139.2,1.9 148.9,11.6 158.7,1.9 168.4,11.6 178.2,1.9 187.9,11.6 197.7,1.9 207.5,11.6 217.2,1.9 227,11.6 236.7,1.9 246.5,11.6 
		256.2,1.9 266,11.6 275.8,1.9 285.5,11.6 295.3,1.9 305,11.6 314.8,1.9 324.5,11.6 333.7,2.4 334.9,3.6 	"/>
</g>
</svg>
