<?xml version="1.0" encoding="utf-8"?>
<!-- Generator: Adobe Illustrator 25.0.1, SVG Export Plug-In . SVG Version: 6.00 Build 0)  -->
<svg version="1.1" id="Layer_1" xmlns="http://www.w3.org/2000/svg" xmlns:xlink="http://www.w3.org/1999/xlink" x="0px" y="0px"
	 viewBox="0 0 41 35.5" style="fill: black" xml:space="preserve">
<path d="M38.3,28.9L32,5.4c-0.5-1.9-2.5-3.1-4.4-2.5c-1.2,0.3-2.2,1.3-2.5,2.5l-6.3,23.5c-1.6,0.4-2.5,2.1-2.1,3.7
	c0.4,1.3,1.5,2.2,2.9,2.2h18c1.7,0,3-1.3,3-3C40.5,30.4,39.6,29.2,38.3,28.9z M25.6,10.8h5.7l0.8,3h-7.3L25.6,10.8z M22.9,20.8H34
	l0.8,3H22.1L22.9,20.8z M37.5,32.8h-18c-0.6,0-1-0.4-1-1s0.4-1,1-1h18c0.6,0,1,0.4,1,1S38,32.8,37.5,32.8z M22.4,4.8H9.5v-1
	c0-1.7-1.3-3-3-3s-3,1.3-3,3v1c-1.7,0-3,1.3-3,3v9c0,1.7,1.3,3,3,3v9.8c-0.6,0.6-1,1.4-1,2.2v1.5c0,0.8,0.7,1.5,1.5,1.5h5
	c0.8,0,1.5-0.7,1.5-1.5v-1.5c0-0.8-0.4-1.7-1-2.2v-9.8h9c0.6,0,1-0.4,1-1s-0.4-1-1-1h-15c-0.6,0-1-0.4-1-1v-9c0-0.6,0.4-1,1-1h18.9
	c0.6,0,1-0.4,1-1S22.9,4.8,22.4,4.8z M5.5,19.8h2v9h-2V19.8z M4.5,31.8c0-0.6,0.4-1,1-1h2c0.6,0,1,0.4,1,1v1h-4V31.8z M7.5,4.8h-2
	v-1c0-0.6,0.4-1,1-1s1,0.4,1,1V4.8z M5.7,14.5c0.4,0.4,1,0.4,1.4,0c0,0,0,0,0,0L8,13.7l0.8,0.8c0.4,0.4,1,0.4,1.4,0
	c0.4-0.4,0.4-1,0-1.4l-0.8-0.8l0.8-0.8c0.4-0.4,0.3-1,0-1.4c-0.4-0.4-1-0.4-1.4,0L8,10.9l-0.8-0.8c-0.4-0.4-1-0.4-1.4,0
	c-0.4,0.4-0.4,1,0,1.4l0.8,0.8l-0.8,0.8C5.4,13.4,5.4,14.1,5.7,14.5z M19.2,10.1c-0.4-0.4-1-0.4-1.4,0L17,10.9l-0.8-0.8
	c-0.4-0.4-1-0.4-1.4,0c-0.4,0.4-0.4,1,0,1.4l0.8,0.8l-0.8,0.8c-0.4,0.4-0.4,1,0,1.4c0.4,0.4,1,0.4,1.4,0c0,0,0,0,0,0l0.8-0.8
	l0.8,0.8c0.4,0.4,1,0.4,1.4,0c0.4-0.4,0.4-1,0-1.4l-0.8-0.8l0.8-0.8C19.6,11.1,19.6,10.4,19.2,10.1z"/>
</svg>
